<svg id="visual" viewBox="0 0 900 600" width="900" height="600" xmlns="http://www.w3.org/2000/svg" xmlns:xlink="http://www.w3.org/1999/xlink" version="1.1"><rect x="0" y="0" width="900" height="600" fill="#001220"></rect><defs><linearGradient id="grad1_0" x1="33.3%" y1="0%" x2="100%" y2="100%"><stop offset="20%" stop-color="#fbae3c" stop-opacity="1"></stop><stop offset="80%" stop-color="#fbae3c" stop-opacity="1"></stop></linearGradient></defs><defs><linearGradient id="grad1_1" x1="33.3%" y1="0%" x2="100%" y2="100%"><stop offset="20%" stop-color="#fbae3c" stop-opacity="1"></stop><stop offset="80%" stop-color="#f17c53" stop-opacity="1"></stop></linearGradient></defs><defs><linearGradient id="grad1_2" x1="33.3%" y1="0%" x2="100%" y2="100%"><stop offset="20%" stop-color="#cc5867" stop-opacity="1"></stop><stop offset="80%" stop-color="#f17c53" stop-opacity="1"></stop></linearGradient></defs><defs><linearGradient id="grad1_3" x1="33.3%" y1="0%" x2="100%" y2="100%"><stop offset="20%" stop-color="#cc5867" stop-opacity="1"></stop><stop offset="80%" stop-color="#96446e" stop-opacity="1"></stop></linearGradient></defs><defs><linearGradient id="grad1_4" x1="33.3%" y1="0%" x2="100%" y2="100%"><stop offset="20%" stop-color="#593762" stop-opacity="1"></stop><stop offset="80%" stop-color="#96446e" stop-opacity="1"></stop></linearGradient></defs><defs><linearGradient id="grad1_5" x1="33.3%" y1="0%" x2="100%" y2="100%"><stop offset="20%" stop-color="#593762" stop-opacity="1"></stop><stop offset="80%" stop-color="#232745" stop-opacity="1"></stop></linearGradient></defs><defs><linearGradient id="grad1_6" x1="33.3%" y1="0%" x2="100%" y2="100%"><stop offset="20%" stop-color="#001220" stop-opacity="1"></stop><stop offset="80%" stop-color="#232745" stop-opacity="1"></stop></linearGradient></defs><defs><linearGradient id="grad2_0" x1="0%" y1="0%" x2="66.7%" y2="100%"><stop offset="20%" stop-color="#fbae3c" stop-opacity="1"></stop><stop offset="80%" stop-color="#fbae3c" stop-opacity="1"></stop></linearGradient></defs><defs><linearGradient id="grad2_1" x1="0%" y1="0%" x2="66.7%" y2="100%"><stop offset="20%" stop-color="#f17c53" stop-opacity="1"></stop><stop offset="80%" stop-color="#fbae3c" stop-opacity="1"></stop></linearGradient></defs><defs><linearGradient id="grad2_2" x1="0%" y1="0%" x2="66.7%" y2="100%"><stop offset="20%" stop-color="#f17c53" stop-opacity="1"></stop><stop offset="80%" stop-color="#cc5867" stop-opacity="1"></stop></linearGradient></defs><defs><linearGradient id="grad2_3" x1="0%" y1="0%" x2="66.7%" y2="100%"><stop offset="20%" stop-color="#96446e" stop-opacity="1"></stop><stop offset="80%" stop-color="#cc5867" stop-opacity="1"></stop></linearGradient></defs><defs><linearGradient id="grad2_4" x1="0%" y1="0%" x2="66.7%" y2="100%"><stop offset="20%" stop-color="#96446e" stop-opacity="1"></stop><stop offset="80%" stop-color="#593762" stop-opacity="1"></stop></linearGradient></defs><defs><linearGradient id="grad2_5" x1="0%" y1="0%" x2="66.7%" y2="100%"><stop offset="20%" stop-color="#232745" stop-opacity="1"></stop><stop offset="80%" stop-color="#593762" stop-opacity="1"></stop></linearGradient></defs><defs><linearGradient id="grad2_6" x1="0%" y1="0%" x2="66.7%" y2="100%"><stop offset="20%" stop-color="#232745" stop-opacity="1"></stop><stop offset="80%" stop-color="#001220" stop-opacity="1"></stop></linearGradient></defs><g transform="translate(900, 0)"><path d="M0 432.7C-75.6 421.3 -151.1 409.9 -216.3 374.7C-281.5 339.5 -336.3 280.4 -370.7 214C-405 147.6 -418.8 73.8 -432.7 0L0 0Z" fill="#0f1d33"></path><path d="M0 370.9C-64.8 361.1 -129.6 351.4 -185.4 321.2C-241.3 291 -288.3 240.4 -317.7 183.4C-347.1 126.5 -359 63.2 -370.9 0L0 0Z" fill="#3d3056"></path><path d="M0 309C-54 300.9 -108 292.8 -154.5 267.6C-201.1 242.5 -240.2 200.3 -264.8 152.9C-289.3 105.4 -299.2 52.7 -309 0L0 0Z" fill="#773d6b"></path><path d="M0 247.2C-43.2 240.7 -86.4 234.2 -123.6 214.1C-160.9 194 -192.2 160.2 -211.8 122.3C-231.4 84.3 -239.3 42.2 -247.2 0L0 0Z" fill="#b34c6d"></path><path d="M0 185.4C-32.4 180.6 -64.8 175.7 -92.7 160.6C-120.7 145.5 -144.1 120.2 -158.9 91.7C-173.6 63.2 -179.5 31.6 -185.4 0L0 0Z" fill="#e1685e"></path><path d="M0 123.6C-21.6 120.4 -43.2 117.1 -61.8 107.1C-80.4 97 -96.1 80.1 -105.9 61.1C-115.7 42.2 -119.7 21.1 -123.6 0L0 0Z" fill="#f99447"></path><path d="M0 61.8C-10.8 60.2 -21.6 58.6 -30.9 53.5C-40.2 48.5 -48 40.1 -53 30.6C-57.9 21.1 -59.8 10.5 -61.8 0L0 0Z" fill="#fbae3c"></path></g><g transform="translate(0, 600)"><path d="M0 -432.7C79.6 -423.6 159.2 -414.6 216.3 -374.7C273.4 -334.8 308 -264.1 340.3 -196.5C372.7 -128.9 402.7 -64.5 432.7 0L0 0Z" fill="#0f1d33"></path><path d="M0 -370.9C68.2 -363.1 136.5 -355.4 185.4 -321.2C234.4 -287 264 -226.4 291.7 -168.4C319.4 -110.5 345.1 -55.2 370.9 0L0 0Z" fill="#3d3056"></path><path d="M0 -309C56.9 -302.6 113.7 -296.1 154.5 -267.6C195.3 -239.2 220 -188.6 243.1 -140.4C266.2 -92.1 287.6 -46 309 0L0 0Z" fill="#773d6b"></path><path d="M0 -247.2C45.5 -242.1 91 -236.9 123.6 -214.1C156.3 -191.3 176 -150.9 194.5 -112.3C212.9 -73.7 230.1 -36.8 247.2 0L0 0Z" fill="#b34c6d"></path><path d="M0 -185.4C34.1 -181.6 68.2 -177.7 92.7 -160.6C117.2 -143.5 132 -113.2 145.9 -84.2C159.7 -55.2 172.6 -27.6 185.4 0L0 0Z" fill="#e1685e"></path><path d="M0 -123.6C22.7 -121 45.5 -118.5 61.8 -107.1C78.1 -95.7 88 -75.5 97.2 -56.1C106.5 -36.8 115 -18.4 123.6 0L0 0Z" fill="#f99447"></path><path d="M0 -61.8C11.4 -60.5 22.7 -59.2 30.9 -53.5C39.1 -47.8 44 -37.7 48.6 -28.1C53.2 -18.4 57.5 -9.2 61.8 0L0 0Z" fill="#fbae3c"></path></g></svg>